<svg xmlns="http://www.w3.org/2000/svg" viewBox="0 0 301.22 301.78" fill="currentColor">
<path d="M-809.95,250.88c-.15-9.87-.09-19.74-.06-29.61,0-6.16,2.47-8.69,8.64-8.69q80.43,0,160.86,0a10.19,10.19,0,0,1,7.65,3.22q26.11,26.29,52.37,52.48a9.94,9.94,0,0,1,3.16,7.64c-.12,10.37,0,20.74-.11,31.11,0,2.21.67,3,2.73,3.43,35.43,7.91,60.39,34.88,65.18,70.31,5.56,41.09-22.67,81.4-63.33,90.14-3.56.77-4.74,1.94-4.62,5.66.3,9.61.11,19.24.1,28.86,0,6.66-2.29,8.9-9.06,8.92-5,0-10-.05-15-.05-54,0-119.78.07-195.84.06-6.86,0-12.8-6.48-12.81-13.41C-810.06,453.69-809.92,253.25-809.95,250.88Zm13.75,112.36q0,66.51-.08,133c0,3.41.84,4.26,4.24,4.25q98.37-.16,196.73-.08c.74,0,1.5-.06,2.24,0,1.65.17,2.12-.57,2.1-2.16-.06-7.62-.08-15.24,0-22.86,0-1.81-.56-2.26-2.31-2.37a112.57,112.57,0,0,1-11.88-1.26c-57.11-9.67-86.54-75.36-55.49-124.38,15.32-24.2,37.67-37.07,66.3-38.64,2.81-.16,3.49-.94,3.41-3.67-.21-6.86-.19-13.74,0-20.61.07-2.59-.58-3.34-3.25-3.31-14.08.14-28.17.07-42.26.06-7.18,0-9.26-2.12-9.26-9.43,0-13.86-.11-27.73.08-41.59,0-3.18-.87-3.86-3.92-3.85q-71.43.15-142.87,0c-3.08,0-3.88.69-3.87,3.84Q-796.11,296.72-796.2,363.24Zm205,96.14c36.93.47,67.95-30.05,68.45-67.35.51-38.07-29.59-69.25-67.23-69.62-38.39-.38-68.81,29.5-69.44,68.21C-660,428-629.34,458.9-591.18,459.38Zm-40.89-222v27.74c0,1.23-.26,2.5,1.76,2.49,9.54-.07,19.09,0,28.32,0Z" transform="translate(810.05 -212.55)"/>
<path d="M-721.19,267.57c-12.71,0-25.42,0-38.13,0a17.41,17.41,0,0,1-4.8-.5,6.31,6.31,0,0,1-4.75-6.43,6.48,6.48,0,0,1,4.38-6.35,12.32,12.32,0,0,1,4.79-.59h77.38a12.55,12.55,0,0,1,4.43.47c3.2,1.17,4.84,3.45,4.68,6.84a6.16,6.16,0,0,1-5,6.14,18.79,18.79,0,0,1-4.44.41Q-701.93,267.59-721.19,267.57Z" transform="translate(810.05 -212.55)"/>
<path d="M-720.94,308.55h-39.25c-1.62,0-3.29.16-4.77-.62a6.59,6.59,0,0,1-3.9-6.68A6.61,6.61,0,0,1-763.3,295a18.53,18.53,0,0,1,4.09-.19h76.63c.87,0,1.75,0,2.62,0,4.11.33,6.84,3.16,6.78,7s-2.77,6.62-7,6.65c-13.58.08-27.16,0-40.74,0Z" transform="translate(810.05 -212.55)"/>
<path d="M-749.21,417a7.19,7.19,0,0,1-4.95-2.29c-4.15-4.14-8.35-8.23-12.41-12.45-3.12-3.25-3.16-7.15-.34-10s6.71-2.76,10,.31a81.23,81.23,0,0,1,6,6.13c1.44,1.67,2.32,1.38,3.73-.08q9.12-9.39,18.45-18.57c4.31-4.24,10-3.54,12,1.37a6.61,6.61,0,0,1-1.53,7.58q-12.91,13-25.92,25.92A6.79,6.79,0,0,1-749.21,417Z" transform="translate(810.05 -212.55)"/>
<path d="M-762.26,445.07c2.56,0,4.38,1.35,6.15,3.06,2.38,2.27,4.4,6.5,7.18,6.31,2.46-.17,4.69-4,7-6.32,4.68-4.66,9.24-9.44,14.05-14,3.12-2.95,7-2.81,9.7-.09s2.7,6.75-.27,10c-.25.27-.53.53-.79.79q-11.91,11.89-23.82,23.79c-4.34,4.31-7.59,4.34-11.86.1-4-3.94-8-7.89-11.87-11.92-2.06-2.13-2.82-4.66-1.55-7.55A6.77,6.77,0,0,1-762.26,445.07Z" transform="translate(810.05 -212.55)"/>
<path d="M-741.29,336c6.46,0,12.93,0,19.4,0,4.71,0,7.62,2.69,7.63,6.81s-2.78,6.8-7.57,6.81q-19.77.08-39.54,0c-4.58,0-7.65-2.95-7.55-6.94s3.09-6.63,7.48-6.67C-754.72,336-748,336-741.29,336Z" transform="translate(810.05 -212.55)"/>
<path d="M-601.68,419.25a7.22,7.22,0,0,1-5.29-2.39c-6.87-6.89-13.78-13.74-20.6-20.67-3.21-3.27-3.27-7.49-.35-10.28s6.76-2.58,10,.56c4.72,4.63,9.45,9.25,13.93,14.1,1.88,2,2.78,1.65,4.52-.11,11.19-11.38,22.5-22.64,33.79-33.92a22.83,22.83,0,0,1,3.34-3,6.51,6.51,0,0,1,8.78,1.11,6.9,6.9,0,0,1,.43,8.62,17.82,17.82,0,0,1-1.76,1.93q-20.48,20.52-41,41C-597.5,417.9-599.25,419.22-601.68,419.25Z" transform="translate(810.05 -212.55)"/>
</svg>