<svg viewBox="0 0 244 283" fill="currentColor" xmlns="http://www.w3.org/2000/svg">
<path d="M243.927 273.242L222.527 69.4518C222.078 65.1856 218.482 61.9461 214.193 61.9461H173.97V52.7756C173.97 24.1899 150.712 0.931641 122.126 0.931641C93.5384 0.931641 70.2801 24.1899 70.2801 52.7756V61.9461H30.0578C25.7679 61.9461 22.1719 65.1856 21.7229 69.4518L0.322842 273.242C0.0758021 275.603 0.842699 277.96 2.4302 279.725C4.01984 281.489 6.28401 282.497 8.65774 282.497H235.59C237.966 282.497 240.23 281.489 241.818 279.725C243.41 277.96 244.175 275.603 243.927 273.242ZM87.0402 52.7756C87.0402 33.4313 102.78 17.6917 122.126 17.6917C141.471 17.6917 157.21 33.4313 157.21 52.7756V61.9461H87.0402V52.7756ZM17.9636 265.737L37.6043 78.7061H70.2801V97.174C70.2801 101.801 74.033 105.554 78.6602 105.554C83.2873 105.554 87.0402 101.801 87.0402 97.174V78.7061H157.21V97.174C157.21 101.801 160.963 105.554 165.59 105.554C170.217 105.554 173.97 101.801 173.97 97.174V78.7061H206.646L226.287 265.737H17.9636Z"/>
</svg>
