<svg version="1.1" xmlns="http://www.w3.org/2000/svg" xmlns:xlink="http://www.w3.org/1999/xlink" viewBox="0 0 937 937" style="enable-background:new 0 0 937 937;" xml:space="preserve" fill="currentColor" width="100%" stroke="currentColor">
	<path d="M0,833.9C0,873.7,32.3,906,72.1,906h792.8c39.8,0,72.1-32.3,72.1-72.1V113.2c0-39.8-32.3-72.1-72.1-72.1H72.1
		C32.3,41.1,0,73.4,0,113.2V833.9z M36,113.2c0-19.9,16.1-36,36-36h792.8c19.9,0,36,16.1,36,36v720.8c0,19.9-16.1,36-36,36H72.1
		c-19.9,0-36-16.1-36-36V113.2z"/>
	<path d="M72.1,113.2h36v36h-36V113.2z"/>
	<path d="M162.2,113.2h36v36h-36V113.2z"/>
	<path d="M252.3,113.2h36v36h-36V113.2z"/>
	<path d="M72.1,185.2h792.8v36H72.1V185.2z"/>
	<path d="M468.5,419.5c-69.7,0-126.1,56.5-126.1,126.1s56.5,126.1,126.1,126.1s126.1-56.5,126.1-126.1
		C594.6,476,538.1,419.6,468.5,419.5z M468.5,635.7c-49.8,0-90.1-40.3-90.1-90.1s40.3-90.1,90.1-90.1s90.1,40.3,90.1,90.1
		C558.5,595.4,518.2,635.7,468.5,635.7z"/>
	<path d="M756.8,491.6c0-10-8.1-18-18-18h-47.6c-3.8-11.8-8.6-23.4-14.3-34.4l33.7-33.7c7-7,7-18.4,0-25.5l-76.5-76.5
		c-7-7-18.4-7-25.5,0L575,337.2c-11.1-5.7-22.6-10.4-34.4-14.2v-47.6c0-10-8.1-18-18-18H414.4c-10,0-18,8.1-18,18V323
		c-11.8,3.8-23.3,8.6-34.4,14.2l-33.7-33.7c-7-7-18.4-7-25.5,0L226.4,380c-7,7-7,18.4,0,25.5l33.7,33.7c-1.5,3-3,5.9-4.3,8.9
		c-3.8,8.3-7.1,16.8-9.9,25.5h-47.6c-10,0-18,8.1-18,18v108.1c0,10,8.1,18,18,18h47.6c3.8,11.8,8.6,23.4,14.3,34.4l-33.7,33.7
		c-7,7-7,18.4,0,25.5l76.5,76.5c7,7,18.4,7,25.5,0l33.7-33.7c11.1,5.7,22.6,10.4,34.4,14.2v47.6c0,10,8.1,18,18,18h108.1
		c10,0,18-8.1,18-18v-47.6c11.8-3.8,23.3-8.6,34.4-14.2l33.7,33.7c7,7,18.4,7,25.5,0l76.5-76.5c7-7,7-18.4,0-25.5l-33.7-33.7
		c5.7-11.1,10.4-22.6,14.3-34.4h47.6c10,0,18-8.1,18-18V491.6z M720.8,581.7h-43.1c-8.2,0-15.4,5.6-17.4,13.5
		c-4.6,17.9-11.7,35-21.1,51c-4.2,7.1-3,16.1,2.8,21.9l30.5,30.5l-51,51L590.9,719c-5.8-5.8-14.8-7-21.9-2.8
		c-15.9,9.4-33.1,16.5-50.9,21.1c-8,2.1-13.5,9.2-13.5,17.4v43.1h-72.1v-43.1c0-8.2-5.6-15.4-13.5-17.4c-17.9-4.6-35-11.7-50.9-21.1
		c-7.1-4.2-16.1-3-21.9,2.8l-30.5,30.5l-51-51l30.5-30.5c5.8-5.8,7-14.8,2.8-21.9c-9.4-15.9-16.5-33.1-21.1-51
		c-2.1-8-9.2-13.5-17.4-13.5h-43.1v-72.1h43.1c8.2,0,15.4-5.6,17.4-13.5c2.9-11.3,6.8-22.4,11.7-33c2.8-6.2,5.9-12.2,9.4-18
		c4.2-7.1,3-16.1-2.8-21.9l-30.5-30.5l51-51l30.5,30.5c5.8,5.8,14.8,6.9,21.9,2.8c15.9-9.4,33.1-16.5,50.9-21.1
		c8-2,13.5-9.2,13.5-17.4v-43.1h72.1v43.1c0,8.2,5.6,15.4,13.5,17.4c17.9,4.6,35,11.7,50.9,21.1c7.1,4.2,16.1,3,21.9-2.8l30.5-30.5
		l51,51l-30.5,30.5c-5.8,5.8-7,14.8-2.8,21.9c9.4,15.9,16.5,33.1,21.1,51c2.1,8,9.2,13.5,17.4,13.5h43.1V581.7z"/>
</svg>
