<svg xmlns="http://www.w3.org/2000/svg" viewBox="0 0 383.08 383.11"><defs><style>.cls-1{fill:#030303;}</style></defs><title>Asset 4</title><g id="Layer_2" data-name="Layer 2"><g id="PRINT"><path class="cls-1" d="M202.77,0c1,1.38,2.68.8,4,1.3,9.08,3.45,14.43,11.44,14.44,22.27q.06,36.09,0,72.19v70c1.46,0,1.6-1.19,2.18-1.85,6.77-7.67,15.21-10.53,25.2-8.6,2,.38,2.89.47,3.81-1.82,4.84-12,16.73-18,29.44-15.24,1.81.39,2.55.14,3.28-1.69,4.05-10.27,12-15.43,22.74-15.88,10.51-.45,18.56,4.24,23.4,13.7,11,21.56,23.4,42.48,31.88,65.3a277.82,277.82,0,0,1,9.45,29.84,115.36,115.36,0,0,0,7.16,20.74A36.23,36.23,0,0,1,365,296.64c-3.88,2.26-6.85,1.82-8.73-1.27s-1-5.85,2.91-8.26c12-7.48,16-20.76,9.77-33.42-4.58-9.27-6.47-19.3-9.27-29.08-6.2-21.62-15.42-42-26.08-61.69-4.31-8-8.33-16.13-12.71-24.08a14,14,0,0,0-23.48-1.52c-2.87,3.85-3.72,7.93-1.12,12.48,3.09,5.39,5.87,11,8.73,16.48,2,3.82,1.3,6.62-1.84,8.32s-6.14.65-8.2-3.22c-2.86-5.37-5.83-10.7-8.41-16.22-2.22-4.74-6-6.39-10.81-6.33a14.23,14.23,0,0,0-13.56,10.82,8,8,0,0,0,.74,6.1c3.17,5.77,6.19,11.63,9.22,17.48,2.08,4,1.45,6.94-1.8,8.61s-6,.6-8.13-3.34c-2.8-5.27-5.55-10.57-8.32-15.85s-6.26-7.11-12.11-6.61a13.6,13.6,0,0,0-11,19.8c2.63,5.08,5.34,10.12,7.94,15.21,2,3.9,1.24,6.84-2.08,8.48s-5.8.53-7.82-3.31q-23.08-43.92-46.1-87.85L182,117c-4.33-8.08-10.67-10.61-17.75-7.08a14.68,14.68,0,0,0-6.87,20c4.34,8.8,9.06,17.43,13.62,26.12q19.47,37.17,39,74.33l.86,1.66c1.42,2.63,1.77,5.25-.52,7.56s-4.84,2-7.53.61q-13.17-7-26.39-13.92c-.77-.4-1.56-.79-2.33-1.18-7.79-4-15.1-1.72-18.89,5.78s-1.37,15.16,6.5,19.06q41.07,20.4,82.22,40.66A41.84,41.84,0,0,1,263,308.76C270,321.55,284.32,326,297.3,319.49c10.88-5.47,21.61-11.25,32.39-16.93,2.69-1.42,5.22-1.69,7.45.77,2.57,2.83,2.17,6.77-1.23,8.58-12.3,6.53-24.42,13.5-37.14,19.1-16.29,7.17-36.32-.08-44.87-15.69a33.55,33.55,0,0,0-16.54-15.42c-5.3-2.31-10.42-5.07-16.13-7.87v4.64q0,31.05,0,62.1c0,15.43-8.95,24.34-24.37,24.34H25.16c-13.48,0-19.6-4.18-24.6-16.8-.07-.18-.37-.28-.56-.41V16.46c2.07-2.54,2.81-5.81,4.89-8.4C8.17,4,12.77,2.17,17.21,0H39.66c2,2.36,3.94,4.72,2.3,8.14s-4.73,3.1-7.72,3.09c-4,0-8-.07-12,0-6.55.14-10.89,4.52-11,11.12-.08,4,.25,8-.09,12-.29,3.36.82,4,4,4q95.36-.16,190.7-.08a14.57,14.57,0,0,1,1.87,0c1.85.24,2.32-.61,2.27-2.35-.11-3.86,0-7.72,0-11.59,0-9.23-3.94-13.09-13.26-13.09q-63.19,0-126.39,0c-3,0-5.77-.29-6.9-3.72s.49-5.7,3.15-7.53Zm6.5,144.7.73-.18v-2.81c0-29.43-.07-58.86.09-88.29,0-3.44-1-4-4.16-4q-95.38.15-190.78,0c-3.38,0-4,.9-4,4.09q.15,125.7,0,251.4c0,3.21.63,4.11,4,4.1q93.14-.18,186.29-.09c1.87,0,3.75-.13,5.61,0,2.24.2,3.07-.52,3-2.88-.16-5.36-.17-10.73,0-16.09.08-2.55-.64-3.89-3.1-5.07-16.89-8.17-34.16-15.59-50.47-24.94-1.89-1.09-2.73-.39-4,.82-10.9,10.35-23.88,16.22-38.9,16.76-39,1.4-68-31-62.74-69.88C55.27,175,88.67,151.16,121,157.5c27,5.3,46.12,25.49,49.65,52.32.14,1.07-.11,2.3,1.46,2.64,6.45,1.37,11.71,5.36,17.55,8.07.79.37,1.55,1.45,2.76.51q-20.59-39.3-41.13-78.64c-1.32-2.54-2.68-3.5-5.62-3.49q-53.13.19-106.24.07c-9.06,0-14.49-5.37-14.53-14.35q-.09-18.9,0-37.79c0-8.79,5.5-14.19,14.27-14.2q71.46,0,142.91,0c8.82,0,14.09,5.31,14.14,14.24.05,7.73.33,15.48-.09,23.19a30.73,30.73,0,0,0,4.51,18.4C203.8,133.69,206.41,139.27,209.27,144.7ZM110.62,320.12c-31.9,0-63.8.06-95.7-.08-3.21,0-3.82.89-3.77,3.9.19,11.71.07,23.42.08,35.14,0,8.76,4,12.8,12.74,12.8H197.06c8.93,0,12.91-4,12.93-13.05,0-11.71-.11-23.43.09-35.14,0-3.05-.92-3.64-3.76-3.63C174.42,320.16,142.52,320.12,110.62,320.12Zm-.19-53.72a49.31,49.31,0,0,0,33.09-12.57c1.89-1.66,2.55-2.77,1.15-5.48a24.74,24.74,0,0,1,11.84-34c2.82-1.27,3.21-2.68,2.76-5.3a49.44,49.44,0,0,0-54.41-40.82c-26.12,2.89-45,25.8-43.45,52.62C62.89,246,84.83,266.36,110.43,266.4ZM185,102.56c0-5.13-.19-9.86.07-14.56.17-3.37-1.11-4.2-4.31-4.19q-70.08.12-140.16,0c-3.39,0-4.61.91-4.56,4.42q.27,17.57,0,35.13c-.06,3.48,1.12,4.51,4.53,4.48,16.45-.15,32.89-.07,49.34-.07,16.94,0,33.88,0,50.82,0,2.64,0,4.13-.13,3.47-3.52s.18-6.92,1.44-10.22C151.66,98.21,168.68,93,185,102.56Z"/><path class="cls-1" d="M109.08,330.93c7,0,12.47-.08,18,0s10.23,2.26,12.8,7.51a16.1,16.1,0,0,1-.76,16.37,11.83,11.83,0,0,1-10.21,6c-12.2.13-24.41.3-36.59-.06-7.49-.22-12.56-6.4-12.78-14.38-.22-7.67,4.54-13.91,11.71-15C97.63,330.32,104.13,331.2,109.08,330.93Zm1.56,11.22H95.31c-2.61,0-4.82.6-4.86,3.8s2.16,3.82,4.79,3.81q15.33,0,30.65,0c2.66,0,4.91-.65,4.92-3.75s-2.15-3.89-4.85-3.88C120.86,342.16,115.75,342.15,110.64,342.15Z"/><path class="cls-1" d="M81.75,215.22a6.36,6.36,0,0,1,5,2.32c3.26,3.26,6.62,6.42,9.74,9.82,1.66,1.8,2.61,1.77,4.35,0,11-11.19,22.15-22.25,33.24-33.35,1.33-1.33,2.63-2.69,4.72-2.69a5.6,5.6,0,0,1,5.19,3.05,5,5,0,0,1-.46,5.93,39.62,39.62,0,0,1-2.84,3q-18.23,18.24-36.47,36.48c-4.43,4.42-6.75,4.38-11.25-.1-5-4.93-9.9-9.85-14.79-14.82-1.69-1.72-2.43-3.72-1.23-6.11A5.72,5.72,0,0,1,81.75,215.22Z"/></g></g></svg>