<svg xmlns="http://www.w3.org/2000/svg" fill="none" viewBox="0 0 16 16" width="100%" stroke="currentColor">
  <g clip-path="url(#clip0)">
    <path d="M3.83325 15.3333C3.55725 15.3333 3.33325 15.1093 3.33325 14.8333V3.83331C3.33325 3.55731 3.55725 3.33331 3.83325 3.33331C4.10925 3.33331 4.33325 3.55731 4.33325 3.83331V14.8333C4.33325 15.1093 4.10925 15.3333 3.83325 15.3333Z"/>
    <path d="M15.4999 7.66669H3.83325C3.55725 7.66669 3.33325 7.44269 3.33325 7.16669C3.33325 6.89069 3.55725 6.66669 3.83325 6.66669H15.4999C15.7759 6.66669 15.9999 6.89069 15.9999 7.16669C15.9999 7.44269 15.7759 7.66669 15.4999 7.66669Z"/>
    <path d="M15.4999 11.6667H3.83325C3.55725 11.6667 3.33325 11.4427 3.33325 11.1667C3.33325 10.8907 3.55725 10.6667 3.83325 10.6667H15.4999C15.7759 10.6667 15.9999 10.8907 15.9999 11.1667C15.9999 11.4427 15.7759 11.6667 15.4999 11.6667Z"/>
    <path d="M14.1667 15.3334H1.83333C0.822 15.3334 0 14.5114 0 13.5V2.50002C0 1.48869 0.822 0.666687 1.83333 0.666687H14.1667C15.178 0.666687 16 1.48869 16 2.50002V13.5C16 14.5114 15.178 15.3334 14.1667 15.3334ZM1.83333 1.66669C1.374 1.66669 1 2.04069 1 2.50002V13.5C1 13.9594 1.374 14.3334 1.83333 14.3334H14.1667C14.626 14.3334 15 13.9594 15 13.5V2.50002C15 2.04069 14.626 1.66669 14.1667 1.66669H1.83333Z"/>
    <path d="M15.5 4H0.5C0.224 4 0 3.776 0 3.5C0 3.224 0.224 3 0.5 3H15.5C15.776 3 16 3.224 16 3.5C16 3.776 15.776 4 15.5 4Z"/>
  </g>
  <defs>
    <clipPath id="clip0">
      <rect width="16" height="16" fill="white"/>
    </clipPath>
  </defs>
</svg>