<svg viewBox="0 0 311 290" fill="currentColor" xmlns="http://www.w3.org/2000/svg">
<g clip-path="url(#clip0_58_2454)">
<path d="M214.163 30.3326C216.509 30.3518 218.861 30.339 221.207 30.403C226.232 30.5374 229.052 33.3729 229.09 38.4614C229.142 46.4558 229.142 54.4502 229.11 62.4446C229.084 68.122 226.277 71.0535 220.675 70.8742C217.849 70.7846 216.945 71.4439 216.971 74.465C217.118 95.0366 217.054 115.608 217.048 136.18C217.048 143.944 213.253 147.675 205.421 147.675C171.69 147.675 137.964 147.675 104.233 147.675C95.8112 147.675 92.2156 144.066 92.2092 135.578C92.2028 115.115 92.1451 94.6462 92.2669 74.1834C92.2797 71.5079 91.6003 70.7974 88.9405 70.8742C83.0248 71.0471 80.2368 68.2372 80.1984 62.4382C80.1471 54.655 80.1407 46.8783 80.1984 39.0951C80.2432 32.9505 82.871 30.4414 89.0495 30.3966C91.0748 30.3838 93.1001 30.3262 95.1254 30.2942C98.8043 30.4862 102.483 30.5886 106.162 30.2238C117 30.2878 127.832 30.3326 138.669 30.4414C140.528 30.4606 140.74 29.3917 140.727 27.99C141.88 24.7641 143.848 22.1206 146.514 19.9764C151.937 16.8529 157.365 16.8913 162.794 19.9572C165.415 22.1462 167.46 24.7513 168.549 28.0348C168.639 29.3853 168.818 30.4606 170.69 30.435C181.553 30.3006 192.411 30.275 203.274 30.2046C206.895 30.6398 210.529 30.4094 214.163 30.3326ZM140.259 104.58C140.259 94.2366 140.201 83.8995 140.304 73.5561C140.323 71.4503 139.727 70.8742 137.631 70.8934C126.53 70.9959 115.423 70.9895 104.323 70.8934C102.265 70.8742 101.631 71.3863 101.637 73.5241C101.72 94.2046 101.714 114.885 101.644 135.565C101.637 137.658 102.214 138.26 104.316 138.241C115.417 138.139 126.524 138.139 137.625 138.235C139.689 138.254 140.336 137.71 140.31 135.591C140.201 125.267 140.259 114.923 140.259 104.58ZM168.979 104.567C168.979 114.911 169.036 125.248 168.934 135.591C168.914 137.678 169.491 138.267 171.587 138.247C182.688 138.151 193.795 138.158 204.896 138.247C206.947 138.267 207.607 137.748 207.6 135.61C207.524 114.93 207.524 94.243 207.6 73.5625C207.607 71.4759 207.043 70.8806 204.934 70.8998C193.833 71.0023 182.726 71.0023 171.626 70.8998C169.536 70.8806 168.921 71.4311 168.94 73.5433C169.036 83.8867 168.979 94.2302 168.979 104.567ZM115.193 39.748C107.623 39.748 100.054 39.8248 92.4848 39.7031C90.3313 39.6711 89.4917 40.132 89.5686 42.481C89.7481 47.9024 89.7545 53.3429 89.5686 58.7642C89.4853 61.1261 90.3505 61.5357 92.4784 61.5229C107.508 61.4397 122.544 61.4461 137.574 61.5165C139.541 61.5229 140.381 61.1453 140.317 58.9307C140.156 53.4005 140.156 47.8576 140.317 42.3274C140.381 40.1192 139.592 39.6775 137.574 39.7095C130.113 39.8056 122.653 39.748 115.193 39.748ZM194.128 61.4717C201.807 61.4717 209.491 61.4077 217.169 61.5165C219.137 61.5421 219.714 61.0109 219.663 59.0267C219.528 53.3813 219.547 47.7359 219.65 42.0906C219.682 40.324 219.227 39.7031 217.355 39.7095C201.992 39.7736 186.636 39.7672 171.273 39.7031C169.446 39.6967 168.895 40.2664 168.927 42.065C169.03 47.7103 169.056 53.3557 168.927 59.0011C168.882 60.9597 169.414 61.5485 171.408 61.5229C178.983 61.4141 186.559 61.4781 194.128 61.4717ZM149.757 84.0724C149.757 99.9523 149.757 115.839 149.757 131.719C149.757 138.228 149.757 138.094 156.173 138.267C158.769 138.337 159.551 137.748 159.544 135.002C159.442 101.213 159.48 67.4243 159.474 33.6353C159.474 32.7841 159.525 31.9136 159.39 31.0815C158.967 28.5148 156.615 26.8251 154.045 27.1515C151.296 27.5035 149.77 29.4877 149.77 32.9057C149.751 49.9634 149.764 67.0147 149.757 84.0724Z"/>
<path d="M139.49 289.955C119.314 289.853 101.041 282.998 83.3325 274.171C75.5068 270.273 67.8991 265.883 59.8748 262.458C47.9921 257.382 35.2186 255.853 22.4643 254.553C20.2339 254.329 17.9971 254.182 15.7731 253.913C13.0748 253.587 11.2546 251.456 11.4148 248.94C11.5815 246.386 13.594 244.344 16.3691 244.581C35.5519 246.194 54.6257 248.255 71.9882 257.671C83.4286 263.873 95.0677 269.653 107.245 274.325C129.594 282.889 151.507 281.814 173.612 272.846C197.903 262.996 220.951 250.79 243.723 237.982C258.502 229.668 273.282 221.341 286.953 211.247C291.414 207.95 295.817 204.532 299.162 200.026C303.2 194.586 301.694 190.893 295.009 189.76C289.337 188.8 283.972 190.419 278.71 192.122C262.912 197.242 248.357 205.147 233.667 212.706C225.604 216.854 217.605 221.11 209.542 225.251C206.543 226.794 203.96 226.186 202.576 223.843C200.98 221.136 201.909 218.563 205.255 216.828C218.028 210.191 230.795 203.54 243.614 196.986C253.875 191.738 264.296 186.841 275.288 183.289C282.018 181.113 288.831 179.493 296.015 180.293C303.636 181.145 309.712 186.278 310.833 193.165C311.59 197.799 309.693 201.729 307.039 205.32C302.219 211.848 295.862 216.726 289.266 221.277C266.392 237.048 241.935 250.118 217.413 263.06C200.525 271.976 183.245 280.073 164.915 285.68C160.743 286.953 156.474 287.965 152.206 288.88C148.027 289.77 143.771 290.122 139.49 289.955Z"/>
<path d="M76.513 169.393C62.5986 169.367 51.0364 172.676 39.5447 176.446C29.0016 179.909 18.2662 182.668 7.33211 184.62C5.66572 184.914 3.9096 185.311 2.35857 184.262C0.647313 183.109 -0.346113 181.509 0.115349 179.359C0.666541 176.818 2.5188 175.704 4.92225 175.346C10.7354 174.481 16.4652 173.214 22.1053 171.608C32.2511 168.721 42.3007 165.437 52.517 162.826C65.2584 159.568 78.1922 158.518 91.1516 161.763C100.509 164.106 108.694 168.983 116.609 174.238C127.396 181.401 138.74 187.398 150.635 192.55C165.588 199.028 179.483 207.349 191.122 218.991C194.699 222.569 197.66 226.595 199.525 231.332C203.806 242.194 196.859 252.825 185.194 253.241C178.58 253.478 172.26 251.788 166.088 249.74C152.327 245.183 138.657 240.331 124.909 235.742C112.328 231.549 99.4836 228.503 86.2037 227.549C82.6658 227.299 80.7687 225.302 80.9866 222.339C81.1917 219.491 83.358 217.833 86.9408 218.102C101.611 219.19 115.763 222.665 129.671 227.312C145.136 232.484 160.262 238.68 176.125 242.661C179.143 243.416 182.181 243.973 185.309 243.717C189.783 243.352 192.212 240.024 190.956 235.704C189.43 230.481 185.7 226.73 181.848 223.197C172.164 214.313 161.114 207.31 149.084 202.273C134.036 195.968 120.096 187.865 106.457 179.071C96.8622 172.92 86.569 168.766 76.513 169.393Z"/>
<path d="M254.285 168.132C260.162 168.202 264.982 168.83 269.122 171.934C272.199 174.238 272.91 177.163 270.994 179.595C269.302 181.74 266.591 181.727 263.636 179.704C259.4 176.811 254.663 177.291 250.049 178.181C241.896 179.755 234.583 183.538 227.373 187.481C216.618 193.37 206.357 200.077 196.025 206.657C194.949 207.342 193.898 208.104 192.744 208.629C190.231 209.762 188.046 209.09 186.662 206.785C185.354 204.603 185.642 202.113 187.77 200.788C206.062 189.337 223.553 176.389 244.479 169.745C247.94 168.65 251.516 167.985 254.285 168.132Z"/>
<path d="M106.156 30.2238C102.477 30.5887 98.7978 30.4863 95.1189 30.2943C91.7413 21.9862 91.9464 14.0814 98.0864 7.04714C104.117 0.134453 113.52 -1.78574 123.268 1.69621C133.061 5.19736 140.163 12.11 146.501 19.9828C143.842 22.127 141.874 24.7705 140.714 27.9964C139.592 26.5819 138.522 25.1225 137.336 23.7528C131.824 17.3778 125.806 11.6748 117.192 9.83142C112.513 8.82652 108.226 9.74821 104.983 13.5182C101.772 17.2498 101.733 21.4806 103.624 25.7946C104.31 27.3436 105.303 28.7517 106.156 30.2238Z"/>
<path d="M168.536 28.0475C167.447 24.764 165.409 22.1589 162.781 19.9699C168.325 12.9548 174.593 6.77178 182.842 2.9634C188.174 0.499154 193.725 -0.729768 199.634 0.492753C211.606 2.9698 218.65 14.2605 215.529 26.0825C215.15 27.5226 214.625 28.9244 214.163 30.3389C210.529 30.4157 206.889 30.6461 203.261 30.2237C203.941 29.0268 204.716 27.8683 205.287 26.6201C207.254 22.2933 207.677 17.9729 204.601 13.9533C201.646 10.0873 197.538 9.0312 192.911 9.67126C190.693 9.97849 188.565 10.6698 186.533 11.6683C178.951 15.3934 173.465 21.41 168.536 28.0475Z"/>
<path d="M227.469 170.756C220.086 170.238 214.343 173.291 208.805 176.779C199.23 182.815 190.565 190.105 181.47 196.807C180.868 197.248 180.291 197.722 179.676 198.144C176.772 200.122 174.055 199.853 172.375 197.434C170.805 195.168 171.388 192.544 174.048 190.521C180.233 185.804 186.424 181.093 192.673 176.459C199.006 171.761 205.364 167.088 212.702 163.978C217.49 161.949 222.438 160.886 227.655 161.251C229.148 161.354 230.654 161.488 232 162.173C234.154 163.274 235.115 165.053 234.5 167.447C233.897 169.796 232.314 171.038 229.847 170.993C228.892 170.98 227.943 170.807 227.469 170.756Z"/>
<path d="M192.584 169.425C188.302 169.092 184.572 170.487 181.393 173.246C175.689 178.206 170.087 183.289 164.415 188.281C161.467 190.873 158.544 190.957 156.602 188.588C154.744 186.329 155.359 183.634 158.186 181.157C164.108 175.953 169.921 170.634 175.913 165.514C181.021 161.149 187.11 159.574 193.757 159.92C197.66 160.118 199.89 162.045 199.724 165.104C199.563 168.087 197.455 169.559 193.539 169.425C193.225 169.418 192.904 169.431 192.584 169.425Z"/>
</g>
<defs>
<clipPath id="clip0_58_2454">
<rect width="311" height="290" fill="white"/>
</clipPath>
</defs>
</svg>
