<svg version="1.1" xmlns="http://www.w3.org/2000/svg" xmlns:xlink="http://www.w3.org/1999/xlink" viewBox="0 0 512 512" style="enable-background:new 0 0 512 512;" xml:space="preserve" fill="currentColor">
    <path d="M476.9,141.3l-0.4-0.7c-0.5-1.1-1.1-2.1-1.8-3.1L403.5,14.4C398.4,5.5,388.8,0,378.6,0H133.4
        c-10.3,0-19.8,5.5-25,14.4L36.1,140c-0.7,1.1-1.1,2.3-1.5,3.5c-1,2.8-1.6,5.7-1.6,8.8v324.4c0,19.5,15.8,35.3,35.3,35.3h375.3
        c19.5,0,35.3-15.8,35.3-35.3V151.2c0-0.4,0-0.9,0-1.3C479.1,147,478.5,144,476.9,141.3z M271.5,30h106.4l56,96.9H271.5V30z
            M134.1,30h107.4v96.9H78.3L134.1,30z M448.9,476.7c0,2.9-2.4,5.3-5.3,5.3H68.3c-2.9,0-5.3-2.4-5.3-5.3V156.9h385.9V476.7z"/>
    <path d="M324.1,270c-5.9-5.9-15.4-5.9-21.2,0l-67,67l-25.8-25.8c-5.9-5.9-15.4-5.9-21.2,0c-5.9,5.9-5.9,15.4,0,21.2
        l36.4,36.4c2.9,2.9,6.8,4.4,10.6,4.4s7.7-1.5,10.6-4.4l77.6-77.6C330,285.4,330,275.9,324.1,270z"/>
</svg>
