<svg xmlns="http://www.w3.org/2000/svg" fill="currentColor"  viewBox="0 0 255.17 317.6"><path d="M127.37,256c-34.67,0-69.34-.39-104,.15-20.57.33-26.35-16.85-22-30.55a31.71,31.71,0,0,1,11.6-16.08c3-2.25,6-4.46,9-6.67,10-7.33,15.18-17.3,15.65-29.61.84-21.56.32-43.13.33-64.7,0-23.8,9.52-42.87,27.93-57.67A100.35,100.35,0,0,1,97.68,34c6.69-2.22,7.86-3.7,8-10.66.08-3.49-.11-7,1.14-10.35,2.75-7.41,8.57-11,16-12.49C134.53-1.84,146,4.2,148.7,14.15c1,3.41.65,6.94.82,10.41.24,5,2.38,7.76,7.34,9.33,18.69,5.91,34.91,15.72,46.81,31.71a66.46,66.46,0,0,1,13.48,40c.14,19.82.07,39.64,0,59.47a84.65,84.65,0,0,0,1,13.78,35.64,35.64,0,0,0,14.53,23.53c3.4,2.53,6.9,4.92,10.18,7.6,8.78,7.18,13.53,16.32,12,27.82-1.62,11.85-9.24,18.14-21.26,18.15Q180.48,256,127.37,256Z"/><path d="M127.77,276c13.57,0,27.14.06,40.72-.06,2.6,0,3.4.66,3.17,3.31-1.39,15.62-10.08,26.15-23.37,33.25-25.15,13.44-57.73-.81-64-27.82-2-8.68-2-8.68,6.85-8.68Z"/></svg>