<svg version="1.1" xmlns="http://www.w3.org/2000/svg" xmlns:xlink="http://www.w3.org/1999/xlink" viewBox="0 0 512 512" style="enable-background:new 0 0 512 512;" xml:space="preserve" fill="currentColor">
<path d="M477,232.9h-6L452,149.3c-2.6-11.5-12.6-19.5-24.4-19.5h-76.5v-25c0-19.3-15.7-35-35-35c-11.9,0-269.3,0-281.1,0
  c-19.3,0-35,15.7-35,35v246.1c0,19.3,15.7,35,35,35h28.4c6.9,32.1,35.5,56.3,69.7,56.3s62.8-24.2,69.7-56.3h144
  c6.9,32.1,35.5,56.3,69.7,56.3c34.6,0,63.6-24.8,70-57.6c14.7-4.1,25.6-17.7,25.6-33.7v-83C512,248.6,496.3,232.9,477,232.9
  L477,232.9z M482,267.9v75c-10.9-25.4-36.2-43.3-65.5-43.3c-29.1,0-54.2,17.6-65.3,42.7v-79.4H477C479.7,262.9,482,265.1,482,267.9
  z M423.6,159.8l16.5,73h-89v-73H423.6z M126.2,99.8l98.7,0 M255,99.8h61.2c2.8,0,5,2.2,5,5v251.1H202.8
  c-6.9-32.1-35.5-56.3-69.7-56.3s-62.8,24.2-69.7,56.3H35c-2.8,0-5-2.3-5-5V104.8c0-2.8,2.2-5,5-5h61.2 M133.1,412.2
  c-28.8,0-49-29.1-38.5-56.3c16.5-42.1,79.7-30.7,79.7,15C174.3,393.7,155.8,412.2,133.1,412.2L133.1,412.2z M416.5,412.2
  c-29,0-49-29.3-38.4-56.3c6-15.4,21-26.3,38.4-26.3c29,0,49,29.4,38.4,56.3C448.9,401.3,433.9,412.2,416.5,412.2z"/>
<path d="M275.6,289.6h-40.8c-8.3,0-15,6.7-15,15s6.7,15,15,15h40.8c8.3,0,15-6.7,15-15S283.8,289.6,275.6,289.6z"/>
</svg>
