<svg viewBox="0 0 25 24" fill="currentColor" xmlns="http://www.w3.org/2000/svg">
<g clip-path="url(#clip0_4311_6229)">
<path d="M8.85403 15.7363C8.74744 15.556 8.66354 15.4128 8.57758 15.2702C7.49378 13.4694 6.55439 11.6048 5.9953 9.57673C5.66452 8.37737 5.47747 7.16187 5.58819 5.91273C5.82613 3.22006 7.9002 0.846895 10.5946 0.197774C14.1932 -0.668618 17.7651 1.38099 18.7313 4.8701C19.0813 6.13471 18.9919 7.4047 18.732 8.66796C18.2589 10.9698 17.2397 13.0564 16.0507 15.0737C15.9276 15.2823 15.8024 15.4901 15.656 15.7357C15.7887 15.7357 15.8802 15.7357 15.9709 15.7357C17.6654 15.7357 19.3592 15.7397 21.0536 15.7316C21.3438 15.7303 21.5068 15.8271 21.6127 16.1009C22.5501 18.5279 23.4991 20.9495 24.4439 23.3738C24.6104 23.8009 24.4728 23.9987 24.0073 23.9987C16.1731 23.9993 8.33826 23.9993 0.504101 23.9987C0.0419737 23.9987 -0.0976273 23.7975 0.0681059 23.3731C1.00887 20.9569 1.951 18.5407 2.89313 16.1245C3.03067 15.7713 3.08706 15.7357 3.48455 15.7357C5.17007 15.7357 6.8556 15.7357 8.54113 15.7357C8.63053 15.7363 8.72199 15.7363 8.85403 15.7363ZM12.21 19.2759C12.3 19.1783 12.3296 19.1494 12.3551 19.1178C13.824 17.2794 15.1464 15.3475 16.2288 13.2663C17.2308 11.3398 18.0085 9.34736 18.2169 7.16321C18.5401 3.76828 15.8884 0.795772 12.4004 0.704963C9.03902 0.617516 6.24975 3.30078 6.2745 6.60154C6.28344 7.80561 6.53376 8.96932 6.91406 10.1095C7.59487 12.1517 8.60371 14.0405 9.79066 15.8365C10.5547 16.9915 11.384 18.1061 12.21 19.2759ZM9.40487 21.8165C9.37942 21.7621 9.37323 21.7365 9.3581 21.7177C8.00611 19.999 6.65548 18.2803 5.29661 16.5671C5.24091 16.4971 5.11437 16.4487 5.01878 16.446C4.60686 16.4332 4.19356 16.4507 3.78163 16.4359C3.59458 16.4292 3.51618 16.4951 3.45154 16.6612C2.62562 18.7956 1.79146 20.9273 0.960039 23.0603C0.933907 23.1276 0.916715 23.1989 0.891958 23.2803C0.960727 23.2863 1.00268 23.293 1.04394 23.293C2.36774 23.2937 3.69154 23.2937 5.01534 23.2924C5.08274 23.2924 5.15495 23.2883 5.21753 23.2668C6.60872 22.7865 7.99923 22.3035 9.40487 21.8165ZM6.13009 16.4406C6.21743 16.5597 6.269 16.6343 6.32539 16.705C7.53573 18.2433 8.75087 19.779 9.95227 21.3241C10.0987 21.5125 10.2122 21.5407 10.4378 21.4614C13.5393 20.3723 16.6442 19.2954 19.7491 18.2151C20.3047 18.022 20.8604 17.8283 21.4298 17.6305C21.2985 17.2909 21.1692 16.9801 21.0591 16.6633C21.0021 16.4971 20.9209 16.4345 20.7311 16.4352C18.9603 16.4433 17.1895 16.4426 15.418 16.4359C15.2495 16.4352 15.1622 16.4937 15.0666 16.6242C14.271 17.7092 13.4705 18.7916 12.6597 19.8658C12.3647 20.2573 12.1453 20.2586 11.8558 19.8746C11.0409 18.7929 10.239 17.7012 9.42619 16.6175C9.36842 16.5408 9.2632 16.4487 9.1793 16.4473C8.18353 16.4366 7.18776 16.4406 6.13009 16.4406ZM7.47108 23.2446C7.47659 23.2533 7.48209 23.2621 7.4869 23.2715C11.4672 23.2715 15.4476 23.2715 19.4554 23.2715C19.3963 23.1894 19.3585 23.1343 19.3172 23.0811C18.5518 22.1091 17.783 21.1398 17.0252 20.1618C16.9055 20.0077 16.8099 19.9842 16.6242 20.0494C13.6844 21.0793 10.741 22.1004 7.79842 23.1235C7.68839 23.1625 7.57974 23.2042 7.47108 23.2446ZM17.6056 19.7131C17.6303 19.7622 17.6379 19.7871 17.653 19.8066C18.5333 20.9259 19.4114 22.0466 20.2999 23.1598C20.3604 23.2352 20.4987 23.287 20.6018 23.2877C21.5391 23.2971 22.4758 23.2937 23.4131 23.2924C23.4764 23.2924 23.5396 23.2809 23.6325 23.2715C22.9785 21.5946 22.3348 19.9459 21.6891 18.2911C20.3068 18.7727 18.9589 19.2416 17.6056 19.7131Z" fill="#FFAC00"/>
<path d="M12.234 9.52896C10.5361 9.51685 9.1951 8.17757 9.20816 6.50533C9.22123 4.87075 10.6083 3.553 12.3 3.56915C13.9745 3.58529 15.3135 4.93466 15.3018 6.59479C15.2894 8.21659 13.9051 9.54107 12.234 9.52896ZM12.2691 8.82266C13.5434 8.82064 14.5776 7.80559 14.579 6.55645C14.5804 5.29386 13.542 4.27545 12.2546 4.27612C10.9673 4.27679 9.92611 5.29857 9.93093 6.55713C9.93505 7.81703 10.9748 8.82401 12.2691 8.82266Z" fill="#FFAC00"/>
</g>
<defs>
<clipPath id="clip0_4311_6229">
<rect width="24.5106" height="24" fill="white"/>
</clipPath>
</defs>
</svg>
