<svg xmlns="http://www.w3.org/2000/svg" viewBox="0 0 736.36 767.99" fill="currentColor">
<path d="M368.51,0H634c22.78,0,41,13.07,48.54,34.67,16.66,47.78,33.47,95.5,50,143.32a67,67,0,0,1-44.67,86.82c-3.3,1-3.93,2.51-3.91,5.57.11,22.17,0,44.33,0,66.5q0,184.23,0,368.46c0,36.5-26.1,62.64-62.69,62.64q-257.22,0-514.45,0c-36.1,0-62.47-26.3-62.48-62.42q0-216,.16-431.94c0-6.95-1.58-10.45-8.21-13.79-30-15.09-43.61-50.28-32.52-82Q29,105.7,54.21,33.57A49.71,49.71,0,0,1,101.54,0Q235,0,368.51,0ZM610.83,234.52c-28.54,44.45-93.1,43.49-121.25.28-.66.79-1.33,1.51-1.89,2.3-28.2,40-87.42,40.86-116.42,1.55-2.73-3.69-3.61-3.48-6.23.07C341.3,271,295,277.14,263.31,252.54a82.49,82.49,0,0,1-16.57-17.95c-14.8,21.48-34.81,32.91-60.5,32.88s-45.77-11.9-60.53-33.16c-12.92,20.35-31,31.45-54.54,33.08-3.87.27-4.94,1.18-4.93,5.1q.17,148.23,0,296.44c0,3.73.65,5.1,4.81,5.07q52.23-.29,104.48,0c4.09,0,5.57-1.12,6.69-5.06,7-24.39,22.22-41.22,46.32-49.83,14.71-5.25,30-7.62,45.39-9.3,11.43-1.24,22.94-1.68,34.27-3.74,1.39-.25,3,0,4-1.55,1.71-2.55,1.4-13-.63-15.22-22.34-24.9-33.93-54.29-36-87.45-2-33.54,7.33-63.41,32.93-86,51.05-45,133.27-20.8,152.29,45.2,13.24,46,1.28,87.61-28.17,124.38-4.4,5.5-5.49,10.4-4.32,16.69.43,2.29,1.31,3.56,3.73,3.83,5,.54,9.9,1.41,14.86,1.89,18.73,1.81,37.51,3.2,55.82,8,29,7.6,49.05,24.6,56.66,54.4.9,3.53,2.76,3.69,5.64,3.69,30.49-.08,61-.17,91.48.07,4.74,0,5.63-1.39,5.62-5.79q-.18-147.48-.09-294.94c0-1-.08-2,0-3,.23-2.29-.73-3.28-3-3.51a56.93,56.93,0,0,1-14-3.59C630.28,257.73,619.14,247.86,610.83,234.52ZM364.26,595.82q-146.44,0-292.9-.11c-4.35,0-5.14,1.33-5.12,5.32.15,34.16.1,68.31.08,102.47,0,26.71,16.13,42.88,43,42.88H619.63c26.27,0,42.46-16.17,42.46-42.3,0-34.49-.08-69,.1-103.47,0-4.06-1.18-4.88-5-4.88Q510.72,595.91,364.26,595.82Zm6.31-21.94h18q72.23,0,144.45.08c4,0,4.9-.71,3.28-4.67-6.06-14.77-16.47-24.65-31.59-29.82-15.91-5.45-32.46-7.08-49-8.81-12.22-1.27-24.65-1.32-36.39-5.76a16.75,16.75,0,0,1-10.43-10.65c-2.14-6.07-2.45-12.36-3.14-18.65-.88-8.22,1.12-14.52,7.21-21,22.61-24,32.27-53.45,30.8-86-1-22.93-9.64-43.43-28.11-58.08-40-31.74-99.45-12.83-114,36.86-11.41,39-1.21,74.4,24.67,104.69,7.72,9,10.73,17.3,8.85,28.25-.39,2.3-.68,4.62-.94,6.93-1.28,11-7.33,17.33-18.16,19.62-9.81,2.07-19.76,2.84-29.7,3.78-16.59,1.58-33.14,3.25-49.07,8.63-15.07,5.09-25.91,14.63-32,29.42-2.13,5.18-2.1,5.19,3.31,5.19Zm8.69-460.58h0q0,41.74,0,83.48a49,49,0,0,0,39.17,47.84c23.57,4.75,46.39-7.06,56-28.39,5.69-12.62,3.55-25.47,2.46-38.36q-3.27-38.31-6.71-76.62C468,76,465.64,50.85,463.59,25.63c-.29-3.56-1.75-3.86-4.62-3.85-24.82.08-49.65.2-74.48-.1-4.76-.06-5.33,1.56-5.31,5.64C379.33,56,379.26,84.64,379.26,113.3Zm-22.17-.09q0-43.48,0-87c0-2.81-.09-4.53-3.86-4.51-25.5.18-51,.12-76.49,0-2.59,0-3.68.49-3.92,3.45-1.66,20.07-3.59,40.12-5.37,60.19-2.75,31-5.53,62-8.1,93.06-.73,8.93-2.57,17.9-.8,26.87,5,25.48,28.12,42.78,53.48,40.23,26.15-2.64,45-23.48,45-49.86Q357.14,154.45,357.09,113.21Zm170.67-91.4c-12.82,0-25.64.07-38.47,0-2.8,0-3.83.61-3.45,3.65.71,5.77,1,11.6,1.49,17.4,3.57,40.78,7,81.57,10.79,122.34,1.3,14.08,1.25,28.34,4.05,42.21,5.24,26,31.05,42.41,57.85,37.29,25.24-4.83,42.84-29.73,38.49-55.27-9.31-54.59-19-109.13-28.39-163.7-.53-3.07-1.8-4-4.89-3.93C552.75,21.93,540.25,21.82,527.76,21.81Zm-318.87,0c-12.66,0-25.32.09-38-.07-2.85,0-4.13.69-4.64,3.61-9.46,54.74-19.17,109.44-28.45,164.21-4.37,25.78,13.72,50.76,39.18,55.2,27,4.7,52.07-11.94,57.41-38.07,1.34-6.56,1.28-13.24,1.86-19.86q7.07-80.58,14.23-161.14c.29-3.2-.57-4-3.65-3.94C234.2,21.9,221.54,21.82,208.89,21.82Zm406.86,0c-6.66,0-13.33.18-20-.08-3.48-.13-3.77,1.2-3.26,4.12q15.87,90.93,31.62,181.87a45.67,45.67,0,0,0,55.79,36.7c25.47-6.21,40.74-33.28,32.13-58.45C695.46,137.5,678.39,89.2,661.38,40.88,657.14,28.82,647.07,22,634.24,21.83,628.08,21.74,621.92,21.81,615.75,21.81ZM22,199.25c-.3,24.3,17.66,43.81,41.79,46.27,22.6,2.3,44.17-14.24,48.38-37.2,1.41-7.69,2.51-15.44,3.85-23.14Q129.78,105.8,143.7,26.45c.7-4-.14-4.79-4-4.71-12.16.22-24.32,0-36.47.08-14.18.05-24.19,7.09-28.82,20.33Q49.54,113.28,24.71,184.43A45.79,45.79,0,0,0,22,199.25Z"/>
</svg>